<?xml version="1.0" encoding="utf-8"?>
<!-- Generator: Adobe Illustrator 17.1.0, SVG Export Plug-In . SVG Version: 6.00 Build 0)  -->
<!DOCTYPE svg PUBLIC "-//W3C//DTD SVG 1.1//EN" "http://www.w3.org/Graphics/SVG/1.1/DTD/svg11.dtd">

<svg version="1.1" id="Layer_1" xmlns="http://www.w3.org/2000/svg" xmlns:xlink="http://www.w3.org/1999/xlink" x="0px" y="0px"
	 viewBox="0 0 841.9 595.3" enable-background="new 0 0 841.9 595.3" xml:space="preserve">
<g>
	<path fill="#FFFFFF" stroke="#000000" stroke-width="40" stroke-miterlimit="10" d="M455.4,293.7c0,3,0,8.9-3,11.9l-149,148.9
		c-6,6-14.9,6-20.9,0c-6-6-6-14.9,0-20.9l149-148.8c6-6,14.9-6,20.9,0C455.4,284.8,455.4,287.7,455.4,293.7z"/>
	<path fill="#FFFFFF" stroke="#000000" stroke-width="40" stroke-miterlimit="10" d="M604.3,442.6c0,3,0,8.9-3,11.9
		c-6,6-14.9,6-20.9,0L431.6,305.6c-6-6-6-14.9,0-20.9c6-6,14.9-6,20.9,0l148.9,148.9C604.3,433.6,604.3,436.7,604.3,442.6z"/>
</g>
<g>
	<path fill="#FFFFFF" stroke="#000000" stroke-width="40" stroke-miterlimit="10" d="M426.9,294.7c0-3,0-8.9,3-11.9l149-148.9
		c6-6,14.9-6,20.9,0c6,6,6,14.9,0,20.9l-149,148.8c-6,6-14.9,6-20.9,0C426.9,303.6,426.9,300.7,426.9,294.7z"/>
	<path fill="#FFFFFF" stroke="#000000" stroke-width="40" stroke-miterlimit="10" d="M278,145.8c0-3,0-8.9,3-11.9c6-6,14.9-6,20.9,0
		l148.8,148.9c6,6,6,14.9,0,20.9c-6,6-14.9,6-20.9,0L280.9,154.8C278,154.8,278,151.7,278,145.8z"/>
</g>
</svg>
